<svg id="Layer_1" data-name="Layer 1" xmlns="http://www.w3.org/2000/svg" viewBox="0 0 153.75 138.48"><defs><style>.cls-1{fill:#f1f2f2;}.cls-2{fill:none;}.cls-3{fill:#6d6e71;}.cls-4{fill:#fed9a8;}.cls-5{fill:#333;}.cls-6{fill:#f4c892;}.cls-7{fill:#1a1a1a;}.cls-8{fill:#ffbf14;}.cls-9{fill:#ff901d;}.cls-10{fill:#21d8de;}.cls-11{fill:#11b9c1;}.cls-12{fill:#ff4c4c;}.cls-13{fill:#f33939;}.cls-14{fill:#ffb123;}.cls-15{fill:#ec008c;}.cls-16{fill:#f7941d;}.cls-17{fill:#fbb040;}.cls-18{fill:#fff;}</style></defs><polygon class="cls-1" points="107.29 0 107.29 132.12 0 132.12 0 40.17 42.21 40.17 42.21 0 107.29 0"/><line class="cls-2" x1="42.8" y1="46.51" x2="42.8" y2="46.38"/><polygon class="cls-3" points="42.8 0 42.8 40.62 0 40.62 0 40.31 42.8 0"/><line class="cls-2" x1="42.84" y1="1" x2="42.8" y2="1.06"/><path class="cls-4" d="M179,254.79l23.2-7.89c.52-.17.44-.94-.12-1.14L177.14,237l-3.21-.06,1.85,17.84Z" transform="translate(-48.8 -116.35)"/><path class="cls-5" d="M202.07,245.76l-13.2-4.66,1,10,12.29-4.18A.61.61,0,0,0,202.07,245.76Z" transform="translate(-48.8 -116.35)"/><path class="cls-6" d="M202.55,246.34a.72.72,0,0,0-.47-.58L177.15,237l-3.21-.06.93,8.92Z" transform="translate(-48.8 -116.35)"/><path class="cls-7" d="M202.55,246.34a.72.72,0,0,0-.47-.58l-13.2-4.66.51,5Z" transform="translate(-48.8 -116.35)"/><path class="cls-8" d="M88.55,244.19h0a7.72,7.72,0,0,1,6.64-8.68,8.32,8.32,0,0,1,1.41-.06L177.05,237l1.84,17.84-80.45-1.55A10.39,10.39,0,0,1,88.55,244.19Z" transform="translate(-48.8 -116.35)"/><path class="cls-9" d="M88.55,244.19h0a9.62,9.62,0,0,0,1.21,3.75,7.72,7.72,0,0,1,7.6-5l80.46,1.55-.77-7.46L96.6,235.49a7.69,7.69,0,0,0-8,8.7Z" transform="translate(-48.8 -116.35)"/><polygon class="cls-10" points="56.6 137.03 54.76 119.19 61.59 119.32 63.43 137.16 56.6 137.03"/><polygon class="cls-11" points="55.54 126.74 54.76 119.19 61.59 119.32 62.36 126.87 55.54 126.74"/><path class="cls-12" d="M88.55,244.19h0a10.39,10.39,0,0,0,9.89,9.09l6.93.14-1.82-17.88-6.93-.13a7.72,7.72,0,0,0-8.13,7.31A7.24,7.24,0,0,0,88.55,244.19Z" transform="translate(-48.8 -116.35)"/><path class="cls-13" d="M88.55,244.19h0A9.67,9.67,0,0,0,89.77,248a7.73,7.73,0,0,1,7.6-5l6.94.13-.78-7.51-6.93-.13a7.73,7.73,0,0,0-8.11,7.33A8.32,8.32,0,0,0,88.55,244.19Z" transform="translate(-48.8 -116.35)"/><polygon class="cls-14" points="128.89 126.54 129.51 132.5 62.81 131.22 62.2 125.26 128.89 126.54"/><path class="cls-15" d="M190.55,172.11a33,33,0,0,1-.9,7.67l-.19.13a5.7,5.7,0,0,1-3.22,1h-1.41a29.62,29.62,0,0,1-1.73,4.35l.24.25-.24.5,1,1.07a6.56,6.56,0,0,1,1.48,2.55A31.14,31.14,0,0,1,175,200a5.91,5.91,0,0,1-1-.43h0a6.13,6.13,0,0,1-1.48-1.15l-1-1a26.44,26.44,0,0,1-4.16,1.81v1.47a6.9,6.9,0,0,1-.17,1.5,6.43,6.43,0,0,1-.38,1.12,28.56,28.56,0,0,1-5.2.73h-1.4a28.2,28.2,0,0,1-4.21-.31,29.26,29.26,0,0,1-4.73-1.1l-.24-.07a6.54,6.54,0,0,1-.06-.89v-2.51a26,26,0,0,1-4.16-1.8l-1,1a5.08,5.08,0,0,1-.54.5,4.78,4.78,0,0,1-.75.52,28.21,28.21,0,0,1-3.13-2.29,30.11,30.11,0,0,1-5-5.35,30.52,30.52,0,0,1-2.62-4.12,7.64,7.64,0,0,1,.51-.62l1-1.07-.24-.5.24-.25a27,27,0,0,1-1.67-4.32h-1.41a5.14,5.14,0,0,1-.88-.07h-.2a29.33,29.33,0,0,1-.89-4.63l-.09-.79.09.2a2.21,2.21,0,0,0,2,1.25H135a2,2,0,0,1,1.88,1.53,24,24,0,0,0,2.47,6.22,2.12,2.12,0,0,1-.3,2.48l-2,2.13a2.42,2.42,0,0,0,0,3.29l2.94,3.08a2.11,2.11,0,0,0,1.47.67,2.07,2.07,0,0,0,1.67-.67l2-2.13a1.88,1.88,0,0,1,2.36-.31,22.18,22.18,0,0,0,5.95,2.58,2,2,0,0,1,1.45,2v3a2.32,2.32,0,0,0,1.14,2,2.08,2.08,0,0,0,1.09.3h4.52a2.3,2.3,0,0,0,1.86-2.3v-3a2,2,0,0,1,1.46-2,21.94,21.94,0,0,0,5.94-2.58,1.9,1.9,0,0,1,2.37.31l2,2.13a2.15,2.15,0,0,0,3,.1l.1-.1,3-3.08a2.42,2.42,0,0,0,0-3.29l-2-2.13a2.1,2.1,0,0,1-.29-2.48,25.29,25.29,0,0,0,2.46-6.22,2,2,0,0,1,1.89-1.52h2.87a2.29,2.29,0,0,0,2.17-2.37v-4.36a2.3,2.3,0,0,0-2.22-2.33h-2.87a2,2,0,0,1-1.89-1.53,25.29,25.29,0,0,0-2.46-6.22,2.08,2.08,0,0,1,.29-2.47l2-2.13a2.4,2.4,0,0,0,0-3.29l-3-3.09a2.16,2.16,0,0,0-3.06-.09l-.08.09-2,2.13a1.89,1.89,0,0,1-2.37.32,22.42,22.42,0,0,0-5.94-2.59,2,2,0,0,1-1.46-2v-3a2.28,2.28,0,0,0-2.21-2.33h-4.17a2.28,2.28,0,0,0-2.23,2.33h0v3a2,2,0,0,1-1.45,2,22.67,22.67,0,0,0-6,2.59,1.89,1.89,0,0,1-2.36-.32l-2-2.13a2.17,2.17,0,0,0-3.07-.08.3.3,0,0,0-.08.08l-3,3.12a2.4,2.4,0,0,0,0,3.29l2,2.13a2.1,2.1,0,0,1,.3,2.47,24.78,24.78,0,0,0-2.47,6.22,2,2,0,0,1-1.88,1.53h-2.87a2.21,2.21,0,0,0-2.1,1.61,29.62,29.62,0,0,1,.81-5.13,5.07,5.07,0,0,1,1.29-.16h1.46a28.43,28.43,0,0,1,1.73-4.43l-.1-.11.1-.21-1-1a5.38,5.38,0,0,1-.84-1.12,31.42,31.42,0,0,1,10.76-12.17,5.88,5.88,0,0,1,1.67,1.26l1,1.06a27.11,27.11,0,0,1,4.16-1.84V144a5.61,5.61,0,0,1,0-.58,6.66,6.66,0,0,1,.27-1.4c0-.14.1-.28.16-.42a29.06,29.06,0,0,1,8.78-1.36,28.16,28.16,0,0,1,6.4.72,6.25,6.25,0,0,1,.7,2.27,6.64,6.64,0,0,1,0,.77v1.56a26.58,26.58,0,0,1,4.16,1.84l1-1.07a6,6,0,0,1,3-1.74A31.17,31.17,0,0,1,185.83,155a6.39,6.39,0,0,1-1.68,3.38l-1,1,.1.21-.1.11a30.57,30.57,0,0,1,1.73,4.43h1.41a5.79,5.79,0,0,1,3.63,1.29A33.2,33.2,0,0,1,190.55,172.11Z" transform="translate(-48.8 -116.35)"/><path class="cls-16" d="M189.91,165a5.83,5.83,0,0,0-3.63-1.27h-1.41a29.53,29.53,0,0,0-1.63-4.15l-.1-.21,1-1a6.39,6.39,0,0,0,1.68-3.38v-.18a6.59,6.59,0,0,0-1.71-5.49l-3-3.08a5.94,5.94,0,0,0-8.4-.24l-.24.24-1,1a26.44,26.44,0,0,0-4.16-1.81V144a6.64,6.64,0,0,0-.05-.77,6.25,6.25,0,0,0-.7-2.27h0a6.05,6.05,0,0,0-5.36-3.35H157a6.11,6.11,0,0,0-5.66,4c-.06.14-.11.29-.16.44a6.66,6.66,0,0,0-.27,1.4,5.61,5.61,0,0,0,0,.58v1.47a26,26,0,0,0-4.16,1.81l-1-1a6,6,0,0,0-8.49-.17l-.16.17-2.94,3.09a6.6,6.6,0,0,0-.92,7.8l.08.13a5.38,5.38,0,0,0,.84,1.12l1,1-.1.21a26.88,26.88,0,0,0-1.63,4.15h-1.41a5.55,5.55,0,0,0-1.29.15,6.33,6.33,0,0,0-4.82,6.25v4.36a6.31,6.31,0,0,0,5,6.29h.2a5.14,5.14,0,0,0,.88.07h1.52a27.18,27.18,0,0,0,1.73,4.35l-.24.25-.76.8a7.49,7.49,0,0,0-.51.61,6.62,6.62,0,0,0,.51,8.44l2.94,3.08a5.91,5.91,0,0,0,7.35,1,4.78,4.78,0,0,0,.75-.52,5.08,5.08,0,0,0,.54-.5l1-1a26,26,0,0,0,4.16,1.8v1.48a6.36,6.36,0,0,0,.06.87,7,7,0,0,0,.24,1.1,6.17,6.17,0,0,0,5.82,4.43h4.16a6.1,6.1,0,0,0,5.56-3.78,6.43,6.43,0,0,0,.38-1.12,6.9,6.9,0,0,0,.17-1.5v-1.54a26.44,26.44,0,0,0,4.16-1.81l1,1a6.13,6.13,0,0,0,1.48,1.15h0a5.94,5.94,0,0,0,7.16-1.15l3-3.08a6.64,6.64,0,0,0,1.48-6.54,6.46,6.46,0,0,0-1.48-2.51l-.76-.8-.24-.25a29.62,29.62,0,0,0,1.73-4.35h1.41a5.7,5.7,0,0,0,3.22-1l.19-.13a6.45,6.45,0,0,0,2.7-5.29v-4.36A6.44,6.44,0,0,0,189.91,165Zm-1.36,9.49a2.3,2.3,0,0,1-2.22,2.33h-2.87a2,2,0,0,0-1.89,1.52,25.29,25.29,0,0,1-2.46,6.22,2.1,2.1,0,0,0,.29,2.48l2,2.13a2.42,2.42,0,0,1,0,3.29l-3,3.08a2.15,2.15,0,0,1-3,.1.94.94,0,0,1-.1-.1l-2-2.13a1.9,1.9,0,0,0-2.37-.31,21.94,21.94,0,0,1-5.94,2.58,2,2,0,0,0-1.46,2v3a2.3,2.3,0,0,1-1.86,2.3h-4.52a2.08,2.08,0,0,1-1.09-.3,2.32,2.32,0,0,1-1.14-2v-3a2,2,0,0,0-1.45-2,22.18,22.18,0,0,1-6-2.58,1.88,1.88,0,0,0-2.36.31l-2,2.13a2.07,2.07,0,0,1-1.67.67,2.11,2.11,0,0,1-1.47-.67L137,192.46a2.42,2.42,0,0,1,0-3.29l2-2.13a2.12,2.12,0,0,0,.3-2.48,24,24,0,0,1-2.47-6.22,2,2,0,0,0-1.88-1.53h-2.87a2.21,2.21,0,0,1-2-1.25l-.09-.2a2.35,2.35,0,0,1-.16-.87v-4.36a2.1,2.1,0,0,1,.07-.56,1,1,0,0,1,.05-.16,2.21,2.21,0,0,1,2.1-1.61H135a2,2,0,0,0,1.88-1.53,24.78,24.78,0,0,1,2.47-6.22,2.1,2.1,0,0,0-.3-2.47l-2-2.13a2.4,2.4,0,0,1,0-3.29l2.94-3.09A2.17,2.17,0,0,1,143,149l.08.08,2,2.13a1.89,1.89,0,0,0,2.36.32,22.67,22.67,0,0,1,5.95-2.59,2,2,0,0,0,1.45-2v-3a2.28,2.28,0,0,1,2.23-2.33h4.16a2.28,2.28,0,0,1,2.22,2.32h0v3a2,2,0,0,0,1.46,2,22.42,22.42,0,0,1,5.94,2.59,1.89,1.89,0,0,0,2.37-.32l2-2.13a2.15,2.15,0,0,1,3-.09l.09.09,3,3.09a2.4,2.4,0,0,1,0,3.29l-2,2.13a2.08,2.08,0,0,0-.29,2.47,25.29,25.29,0,0,1,2.46,6.22,2,2,0,0,0,1.89,1.53h2.87a2.3,2.3,0,0,1,2.22,2.33Z" transform="translate(-48.8 -116.35)"/><path class="cls-16" d="M188.55,170.13v4.36a2.3,2.3,0,0,1-2.22,2.33h-2.87a2,2,0,0,0-1.89,1.52,25.29,25.29,0,0,1-2.46,6.22,2.1,2.1,0,0,0,.29,2.48l2,2.13a2.42,2.42,0,0,1,0,3.29l-3,3.08a2.15,2.15,0,0,1-3,.1.94.94,0,0,1-.1-.1l-2-2.13a1.9,1.9,0,0,0-2.37-.31,21.94,21.94,0,0,1-5.94,2.58,2,2,0,0,0-1.46,2v3a2.3,2.3,0,0,1-1.86,2.3h-4.52a2.08,2.08,0,0,1-1.09-.3,2.32,2.32,0,0,1-1.14-2v-3a2,2,0,0,0-1.45-2,22.18,22.18,0,0,1-6-2.58,1.88,1.88,0,0,0-2.36.31l-2,2.13a2.07,2.07,0,0,1-1.67.67,2.11,2.11,0,0,1-1.47-.67L137,192.46a2.42,2.42,0,0,1,0-3.29l2-2.13a2.12,2.12,0,0,0,.3-2.48,24,24,0,0,1-2.47-6.22,2,2,0,0,0-1.88-1.53h-2.87a2.21,2.21,0,0,1-2-1.25l-.09-.2a32,32,0,0,1-.16-3.25,18.53,18.53,0,0,1,.07-2,2.85,2.85,0,0,1,.05-.65,2.21,2.21,0,0,1,2.1-1.61H135a2,2,0,0,0,1.88-1.53,24.78,24.78,0,0,1,2.47-6.22,2.1,2.1,0,0,0-.3-2.47l-2-2.13a2.4,2.4,0,0,1,0-3.29l2.94-3.09A2.17,2.17,0,0,1,143,149l.08.08,2,2.13a1.89,1.89,0,0,0,2.36.32,22.67,22.67,0,0,1,5.95-2.59,2,2,0,0,0,1.45-2v-3a2.28,2.28,0,0,1,2.23-2.33h4.16a2.28,2.28,0,0,1,2.22,2.32h0v3a2,2,0,0,0,1.46,2,22.42,22.42,0,0,1,5.94,2.59,1.89,1.89,0,0,0,2.37-.32l2-2.13a2.15,2.15,0,0,1,3-.09l.09.09,3,3.09a2.4,2.4,0,0,1,0,3.29l-2,2.13a2.08,2.08,0,0,0-.29,2.47,25.29,25.29,0,0,1,2.46,6.22,2,2,0,0,0,1.89,1.53h2.87A2.3,2.3,0,0,1,188.55,170.13Z" transform="translate(-48.8 -116.35)"/><circle class="cls-17" cx="110.4" cy="55.96" r="19.3"/><circle class="cls-18" cx="110.4" cy="55.77" r="8.37"/></svg>