<svg id="Layer_1" data-name="Layer 1" xmlns="http://www.w3.org/2000/svg" viewBox="0 0 128.6 64.03"><defs><style>.cls-1{fill:#f7941d;}.cls-2{fill:#f9ca32;}.cls-3{fill:#e6e7e8;}</style></defs><g id="Rectangle_2" data-name="Rectangle 2"><path class="cls-1" d="M101.73,83.41H230.12a6.36,6.36,0,0,1-6.36,6.36H108.09a6.36,6.36,0,0,1-6.36-6.36Z" transform="translate(-101.52 -73.72)"/><path class="cls-1" d="M102,83.62h127.8a.09.09,0,0,1,.08.08h0a5.85,5.85,0,0,1-5.85,5.85H107.79a5.85,5.85,0,0,1-5.85-5.85h0a.09.09,0,0,1,.09-.08Z" transform="translate(-101.52 -73.72)"/></g><g id="Rectangle_3" data-name="Rectangle 3"><path class="cls-2" d="M230.12,83.83H101.73a6.35,6.35,0,0,1,6.36-6.35H223.76a6.35,6.35,0,0,1,6.36,6.35Z" transform="translate(-101.52 -73.72)"/><path class="cls-2" d="M229.83,83.62H102a.09.09,0,0,1-.09-.08h0a5.85,5.85,0,0,1,5.85-5.85H224.06a5.85,5.85,0,0,1,5.85,5.85h0a.09.09,0,0,1-.08.08Z" transform="translate(-101.52 -73.72)"/></g><g id="Rectangle_2-2" data-name="Rectangle 2"><path class="cls-1" d="M101.52,105.53H229.91a6.35,6.35,0,0,1-6.36,6.35H107.88a6.35,6.35,0,0,1-6.36-6.35Z" transform="translate(-101.52 -73.72)"/><path class="cls-1" d="M101.81,105.74h127.8a.09.09,0,0,1,.09.08h0a5.85,5.85,0,0,1-5.85,5.85H107.58a5.85,5.85,0,0,1-5.85-5.85h0a.09.09,0,0,1,.08-.08Z" transform="translate(-101.52 -73.72)"/></g><g id="Rectangle_3-2" data-name="Rectangle 3"><path class="cls-2" d="M229.91,106H101.52a6.35,6.35,0,0,1,6.36-6.35H223.55a6.35,6.35,0,0,1,6.36,6.35Z" transform="translate(-101.52 -73.72)"/><path class="cls-2" d="M229.61,105.74H101.81a.09.09,0,0,1-.08-.08h0a5.85,5.85,0,0,1,5.85-5.85H223.85a5.85,5.85,0,0,1,5.85,5.85h0a.09.09,0,0,1-.09.08Z" transform="translate(-101.52 -73.72)"/></g><rect class="cls-3" x="58.4" y="22.54" width="6.71" height="19.37"/><rect class="cls-3" x="18.28" width="6.71" height="19.37"/><g id="Rectangle_2-3" data-name="Rectangle 2"><path class="cls-1" d="M101.52,127.65H229.91a6.35,6.35,0,0,1-6.36,6.35H107.88a6.35,6.35,0,0,1-6.36-6.35Z" transform="translate(-101.52 -73.72)"/><path class="cls-1" d="M101.81,127.86h127.8a.09.09,0,0,1,.09.08h0a5.85,5.85,0,0,1-5.85,5.85H107.58a5.85,5.85,0,0,1-5.85-5.85h0a.09.09,0,0,1,.08-.08Z" transform="translate(-101.52 -73.72)"/></g><g id="Rectangle_3-3" data-name="Rectangle 3"><path class="cls-2" d="M229.91,128.07H101.52a6.36,6.36,0,0,1,6.36-6.36H223.55a6.36,6.36,0,0,1,6.36,6.36Z" transform="translate(-101.52 -73.72)"/><path class="cls-2" d="M229.61,127.86H101.81a.09.09,0,0,1-.08-.08h0a5.85,5.85,0,0,1,5.85-5.85H223.85a5.85,5.85,0,0,1,5.85,5.85h0a.09.09,0,0,1-.09.08Z" transform="translate(-101.52 -73.72)"/></g><rect class="cls-3" x="108.28" y="44.66" width="6.71" height="19.37"/></svg>