<svg id="Layer_1" data-name="Layer 1" xmlns="http://www.w3.org/2000/svg" viewBox="0 0 284.86 262.87"><defs><style>.cls-1{fill:#808285;}.cls-2{fill:#a7a9ac;}.cls-3{fill:#fed9a8;}.cls-4{fill:#333;}.cls-5{fill:#f4c892;}.cls-6{fill:#1a1a1a;}.cls-7{fill:#ffbf14;}.cls-8{fill:#ff901d;}.cls-9{fill:#21d8de;}.cls-10{fill:#11b9c1;}.cls-11{fill:#ff4c4c;}.cls-12{fill:#f33939;}.cls-13{fill:#ffb123;}.cls-14,.cls-15,.cls-16{fill:none;stroke-miterlimit:10;}.cls-14{stroke:#603913;stroke-linecap:round;stroke-width:7px;}.cls-15{stroke:#f7941d;}.cls-15,.cls-16{stroke-width:20px;}.cls-16{stroke:#fbb040;}</style></defs><rect class="cls-1" x="6.2" y="20.99" width="18" height="143.05"/><path class="cls-1" d="M256.55,155.91H86.31V107.5h-6A30.29,30.29,0,0,0,50,137.76v146a30.29,30.29,0,0,0,30.26,30.25H256.55ZM62.1,137.76a18.19,18.19,0,0,1,12.11-17.12V254.15A30.24,30.24,0,0,0,62.1,259.6ZM80.26,302a18.16,18.16,0,1,1,0-36.31h6V168H244.45V302Z" transform="translate(-50 -99.65)"/><rect class="cls-2" x="36.31" y="56.1" width="170.57" height="158.3"/><ellipse class="cls-2" cx="34.18" cy="184.05" rx="34.15" ry="30.36"/><rect class="cls-1" x="206.55" y="56.1" width="24.53" height="158.3"/><path class="cls-3" d="M165.85,197.32,147,235a1,1,0,0,0,1.38,1.33l39.08-18.18,3.87-3.72L169.72,193.6Z" transform="translate(-50 -99.65)"/><path class="cls-4" d="M148.36,236.28l20.7-9.63L157,215,147,235A1,1,0,0,0,148.36,236.28Z" transform="translate(-50 -99.65)"/><path class="cls-5" d="M147.18,236.09a1.07,1.07,0,0,0,1.18.19l39.08-18.18,3.87-3.72L180.51,204Z" transform="translate(-50 -99.65)"/><path class="cls-6" d="M147.18,236.09a1.07,1.07,0,0,0,1.18.19l20.7-9.63-6-5.82Z" transform="translate(-50 -99.65)"/><path class="cls-7" d="M284.41,104h0a14.31,14.31,0,0,1,0,20.79L187.52,218l-21.59-20.79L262.82,104A15.69,15.69,0,0,1,284.41,104Z" transform="translate(-50 -99.65)"/><path class="cls-8" d="M284.41,104h0a15.26,15.26,0,0,0-5.49-3.39,14.3,14.3,0,0,1-3.53,15.49L178.5,209.34l9,8.69,96.89-93.29A14.31,14.31,0,0,0,284.41,104Z" transform="translate(-50 -99.65)"/><polygon class="cls-9" points="204.47 12.35 226.06 33.14 217.84 41.05 196.25 20.26 204.47 12.35"/><polygon class="cls-10" points="216.93 24.34 226.06 33.13 217.84 41.05 208.71 32.25 216.93 24.34"/><path class="cls-11" d="M284.41,104h0a15.69,15.69,0,0,0-21.59,0l-8.35,8,21.59,20.78,8.35-8A14.31,14.31,0,0,0,284.41,104Z" transform="translate(-50 -99.65)"/><path class="cls-12" d="M284.41,104h0a15.28,15.28,0,0,0-5.54-3.41A14.32,14.32,0,0,1,275.33,116L267,124l9.09,8.75,8.35-8A14.31,14.31,0,0,0,284.41,104Z" transform="translate(-50 -99.65)"/><polygon class="cls-13" points="130.33 111.46 123.12 104.52 203.44 27.19 210.65 34.13 130.33 111.46"/><line class="cls-14" x1="56.48" y1="135.25" x2="161.58" y2="135.25"/><polygon class="cls-15" points="274.86 252.87 177.96 252.87 274.86 151.73 274.86 252.87"/><polygon class="cls-16" points="260.14 252.87 172.59 252.87 260.14 165.31 260.14 252.87"/></svg>