<svg id="Layer_1" data-name="Layer 1" xmlns="http://www.w3.org/2000/svg" viewBox="0 0 119.82 109.44"><defs><style>.cls-1{fill:#ffd37a;}.cls-2{fill:#f7941d;}.cls-3{fill:#f15a29;}.cls-4{fill:#d1d3d4;}.cls-5{fill:#e6e7e8;}.cls-10,.cls-6,.cls-7,.cls-8{fill:none;stroke-linecap:round;stroke-miterlimit:10;}.cls-6{stroke:#27aae1;}.cls-6,.cls-7,.cls-8{stroke-width:5px;}.cls-7{stroke:#f7941d;}.cls-8{stroke:#27d2e1;}.cls-9{fill:#f1f2f2;}.cls-10{stroke:#262262;stroke-width:2px;}</style></defs><rect class="cls-1" y="106.56" width="98.37" height="2.88"/><rect class="cls-1" x="5.22" y="28.8" width="10.08" height="77.76"/><rect class="cls-1" x="26.62" y="46.8" width="10.08" height="59.76"/><rect class="cls-1" x="47.86" y="68.88" width="10.08" height="38.12"/><rect class="cls-1" x="69.1" y="43.92" width="10.08" height="62.64"/><rect class="cls-2" x="142.28" y="149.25" width="10.43" height="19.6" transform="translate(-107.84 54.36) rotate(-47.2)"/><ellipse class="cls-2" cx="139.88" cy="151.99" rx="5.21" ry="2.65" transform="translate(-105.1 46.51) rotate(-47.2)"/><rect class="cls-3" x="145.93" y="150.45" width="7.33" height="16.79" transform="translate(-107.01 55.83) rotate(-47.2)"/><rect class="cls-4" x="130.14" y="140.36" width="6.69" height="13.32" transform="translate(-103.5 40.22) rotate(-47.2)"/><rect class="cls-5" x="130.96" y="139.47" width="6.69" height="13.32" transform="translate(-102.59 40.54) rotate(-47.2)"/><ellipse class="cls-3" cx="86.75" cy="18.32" rx="8.76" ry="7.45"/><circle class="cls-6" cx="83.21" cy="24.11" r="14.81"/><circle class="cls-7" cx="79.74" cy="24.89" r="19.85"/><circle class="cls-8" cx="79.98" cy="25.13" r="15.08"/><rect class="cls-9" x="5.2" width="60.69" height="18.6"/><rect class="cls-5" x="5.2" width="10.59" height="18.6"/><line class="cls-10" x1="12.69" y1="9.3" x2="21.22" y2="9.3"/><line class="cls-10" x1="27.03" y1="9.3" x2="47.56" y2="9.3"/></svg>