<svg id="Layer_1" data-name="Layer 1" xmlns="http://www.w3.org/2000/svg" viewBox="0 0 75.46 82.34"><defs><style>.cls-1{fill:#fff;}.cls-2{fill:#ed1c24;}</style></defs><path class="cls-1" d="M115.73,249A13.25,13.25,0,0,1,102.5,235.8a2.65,2.65,0,1,1,5.29,0,7.94,7.94,0,0,0,15.88,0,2.65,2.65,0,0,1,5.3,0A13.25,13.25,0,0,1,115.73,249Z" transform="translate(-80.44 -166.7)"/><path class="cls-1" d="M144.85,238.44H86.62a6.18,6.18,0,0,1-4-10.87l.28-.21A23.71,23.71,0,0,0,91,209.47v-9.85a24.73,24.73,0,0,1,24.7-24.7,10.11,10.11,0,0,1,1.74.11,2.64,2.64,0,0,1,2.18,3,2.67,2.67,0,0,1-3.05,2.18,5.07,5.07,0,0,0-.87,0,19.44,19.44,0,0,0-19.41,19.41v9.85A29,29,0,0,1,86.08,231.6l-.16.12a.9.9,0,0,0-.18.55.89.89,0,0,0,.88.88h58.23a.89.89,0,0,0,.88-.88.84.84,0,0,0-.19-.55l-.15-.12a29,29,0,0,1-10.25-22.13v-3.85a2.65,2.65,0,0,1,5.3,0v3.85a23.7,23.7,0,0,0,8.15,17.9,1.94,1.94,0,0,1,.27.21,6.17,6.17,0,0,1-4,10.86Z" transform="translate(-80.44 -166.7)"/><circle class="cls-2" cx="57.82" cy="17.65" r="17.65"/></svg>